<svg width="26" height="26" viewBox="0 0 26 26" fill="none" xmlns="http://www.w3.org/2000/svg">
<path fill-rule="evenodd" clip-rule="evenodd" d="M5 7.75C4.30965 7.75 3.75 8.30964 3.75 9V19C3.75 19.6904 4.30965 20.25 5 20.25H19C19.6904 20.25 20.25 19.6904 20.25 19V9C20.25 8.30964 19.6904 7.75 19 7.75H5ZM2.25 9C2.25 7.48122 3.48122 6.25 5 6.25H19C20.5188 6.25 21.75 7.48122 21.75 9V19C21.75 20.5188 20.5188 21.75 19 21.75H5C3.48122 21.75 2.25 20.5188 2.25 19V9Z" fill="#111827"/>
<path fill-rule="evenodd" clip-rule="evenodd" d="M2.37597 8.58397C2.60573 8.23933 3.07138 8.1462 3.41603 8.37596L12 14.0986L20.584 8.37596C20.9286 8.1462 21.3943 8.23933 21.624 8.58397C21.8538 8.92862 21.7607 9.39427 21.416 9.62404L12.416 15.624C12.1641 15.792 11.8359 15.792 11.584 15.624L2.58398 9.62404C2.23933 9.39427 2.1462 8.92862 2.37597 8.58397Z" fill="#111827"/>
<rect x="15" y="1" width="10" height="10" rx="5" fill="#E03137"/>
<rect x="15" y="1" width="10" height="10" rx="5" stroke="white" stroke-width="2"/>
</svg>
