<svg width="32" height="32" viewBox="0 0 32 32" fill="none" xmlns="http://www.w3.org/2000/svg">
<path fill-rule="evenodd" clip-rule="evenodd" d="M11 9.75C10.4033 9.75 9.83097 9.98705 9.40901 10.409C8.98705 10.831 8.75 11.4033 8.75 12V23.1893L11.4697 20.4697C11.6103 20.329 11.8011 20.25 12 20.25H21C21.5967 20.25 22.169 20.0129 22.591 19.591C23.0129 19.169 23.25 18.5967 23.25 18V12C23.25 11.4033 23.0129 10.831 22.591 10.409C22.169 9.98705 21.5967 9.75 21 9.75H11ZM8.34835 9.34835C9.05161 8.64509 10.0054 8.25 11 8.25H21C21.9946 8.25 22.9484 8.64509 23.6516 9.34835C24.3549 10.0516 24.75 11.0054 24.75 12V18C24.75 18.9946 24.3549 19.9484 23.6516 20.6517C22.9484 21.3549 21.9946 21.75 21 21.75H12.3107L8.53033 25.5303C8.31583 25.7448 7.99324 25.809 7.71299 25.6929C7.43273 25.5768 7.25 25.3033 7.25 25V12C7.25 11.0054 7.64509 10.0516 8.34835 9.34835Z" fill="#111827"/>
<path fill-rule="evenodd" clip-rule="evenodd" d="M11.25 13C11.25 12.5858 11.5858 12.25 12 12.25H20C20.4142 12.25 20.75 12.5858 20.75 13C20.75 13.4142 20.4142 13.75 20 13.75H12C11.5858 13.75 11.25 13.4142 11.25 13Z" fill="#111827"/>
<path fill-rule="evenodd" clip-rule="evenodd" d="M11.25 17C11.25 16.5858 11.5858 16.25 12 16.25H18C18.4142 16.25 18.75 16.5858 18.75 17C18.75 17.4142 18.4142 17.75 18 17.75H12C11.5858 17.75 11.25 17.4142 11.25 17Z" fill="#111827"/>
<rect x="19" y="3" width="10" height="10" rx="5" fill="#E03137"/>
<rect x="19" y="3" width="10" height="10" rx="5" stroke="white" stroke-width="2"/>
</svg>
