<svg width="32" height="32" viewBox="0 0 32 32" fill="none" xmlns="http://www.w3.org/2000/svg">
<g clip-path="url(#clip0_20_855)">
<path d="M7.93555 23.2607L10.1777 21.2627C10.2806 21.1713 10.4132 21.1206 10.5508 21.1201H15.9805C16.0044 21.1204 16.0281 21.1159 16.0503 21.1068C16.0724 21.0978 16.0926 21.0844 16.1095 21.0675C16.1264 21.0506 16.1398 21.0305 16.1488 21.0083C16.1579 20.9861 16.1624 20.9624 16.1621 20.9385V19.7979H17.2812V20.9385C17.2797 21.284 17.1418 21.615 16.8974 21.8593C16.6531 22.1037 16.3221 22.2416 15.9766 22.2432H10.7617L7.76953 24.9092C7.69149 24.9873 7.59212 25.0406 7.4839 25.0624C7.37567 25.0843 7.26341 25.0737 7.16119 25.0319C7.05897 24.9902 6.97135 24.9192 6.90931 24.8279C6.84728 24.7366 6.8136 24.629 6.8125 24.5186V22.2432H5.30664C4.96075 22.2421 4.62929 22.1044 4.38453 21.86C4.13977 21.6156 4.00154 21.2844 4 20.9385V12.5107C4.00407 12.1656 4.1431 11.8359 4.38732 11.592C4.63154 11.3481 4.96154 11.2096 5.30664 11.2061H12.4668V12.3291H5.30664C5.25917 12.3318 5.21434 12.3518 5.18054 12.3852C5.14674 12.4187 5.1263 12.4633 5.12305 12.5107V20.9385C5.12322 20.9622 5.12815 20.9857 5.13754 21.0075C5.14694 21.0293 5.1606 21.049 5.17773 21.0654C5.21247 21.099 5.25839 21.1184 5.30664 21.1201H7.37305C7.52223 21.1201 7.66531 21.1794 7.77079 21.2849C7.87628 21.3904 7.93555 21.5334 7.93555 21.6826V23.2607ZM7.97656 19.4561L9.78125 14.0049H11.5059L13.3105 19.4561H11.8809L11.5781 18.4639H9.69336L9.39844 19.4561H7.97656ZM10.0137 17.3252H11.2578L10.6406 15.0928L10.0137 17.3252ZM18.9668 9.53418H20.666V9.09668C20.666 9.06094 20.6802 9.02666 20.7055 9.00139C20.7308 8.97611 20.765 8.96191 20.8008 8.96191H21.709C21.7266 8.96191 21.744 8.96541 21.7603 8.97221C21.7765 8.979 21.7912 8.98896 21.8036 9.0015C21.816 9.01404 21.8257 9.02891 21.8323 9.04525C21.8388 9.06159 21.8421 9.07907 21.8418 9.09668V9.53418H23.748C23.7657 9.53418 23.7831 9.53768 23.7993 9.54447C23.8156 9.55127 23.8303 9.56123 23.8427 9.57377C23.855 9.58631 23.8648 9.60118 23.8713 9.61752C23.8779 9.63386 23.8811 9.65134 23.8809 9.66895V10.54C23.8809 10.5753 23.8669 10.609 23.842 10.634C23.8171 10.6589 23.7833 10.6729 23.748 10.6729H23.4453C23.4053 10.9296 23.3459 11.1829 23.2676 11.4307V11.4424C23.1779 11.7219 23.0642 11.993 22.9277 12.2529C22.8025 12.4847 22.6629 12.7085 22.5098 12.9229C22.3789 13.1182 22.2344 13.2939 22.0801 13.4756C22.3008 13.7424 22.541 13.9924 22.7988 14.2236C23.1111 14.4921 23.4435 14.7363 23.793 14.9541C23.8077 14.9634 23.8205 14.9756 23.8306 14.9899C23.8406 15.0042 23.8478 15.0203 23.8516 15.0374C23.8554 15.0544 23.8558 15.0721 23.8528 15.0893C23.8498 15.1065 23.8434 15.123 23.834 15.1377L23.3672 15.8662C23.3575 15.8823 23.3446 15.8961 23.3293 15.9069C23.3139 15.9177 23.2965 15.9252 23.2782 15.9289C23.2598 15.9325 23.2408 15.9323 23.2225 15.9283C23.2042 15.9242 23.187 15.9164 23.1719 15.9053C22.7891 15.6674 22.4248 15.4011 22.082 15.1084C21.8034 14.8598 21.5424 14.5923 21.3008 14.3076C21.0508 14.5303 20.8262 14.7393 20.6016 14.9346C20.3359 15.1533 20.0566 15.3643 19.7285 15.5908C19.7138 15.6022 19.6969 15.6104 19.6788 15.6149C19.6607 15.6194 19.6419 15.6201 19.6236 15.617C19.6052 15.6139 19.5877 15.607 19.5722 15.5968C19.5566 15.5866 19.5434 15.5732 19.5332 15.5576L19.0391 14.8428C19.0277 14.828 19.0195 14.8111 19.015 14.7931C19.0105 14.775 19.0098 14.7562 19.0129 14.7378C19.016 14.7195 19.0229 14.702 19.0331 14.6864C19.0433 14.6709 19.0567 14.6576 19.0723 14.6475C19.3965 14.4248 19.6582 14.2197 19.9238 14.0068C20.1504 13.8115 20.3691 13.6162 20.6055 13.3896C20.4083 13.1107 20.2277 12.8205 20.0645 12.5205C19.8783 12.1636 19.731 11.7877 19.625 11.3994C19.6202 11.3826 19.6188 11.365 19.6209 11.3477C19.6229 11.3304 19.6284 11.3136 19.6369 11.2983C19.6454 11.2831 19.6568 11.2697 19.6706 11.2589C19.6843 11.2481 19.7 11.2401 19.7168 11.2354L20.5508 11.0029C20.5676 10.9982 20.5852 10.9968 20.6025 10.9988C20.6198 11.0008 20.6366 11.0063 20.6518 11.0148C20.6671 11.0233 20.6805 11.0348 20.6913 11.0485C20.7021 11.0622 20.7101 11.0779 20.7148 11.0947C20.849 11.6102 21.0753 12.0972 21.3828 12.5322L21.6309 12.2002C21.7379 12.0449 21.8364 11.8839 21.9258 11.7178C22.0205 11.5351 22.1002 11.345 22.1641 11.1494C22.2154 10.9929 22.2584 10.8339 22.293 10.6729H18.9727C18.9373 10.6729 18.9033 10.6589 18.878 10.6341C18.8528 10.6092 18.8384 10.5754 18.8379 10.54V9.66113C18.8379 9.62539 18.8521 9.59111 18.8774 9.56584C18.9026 9.54057 18.9369 9.52637 18.9727 9.52637L18.9668 9.53418ZM24.2402 20.6318L21.2383 17.9639H16.0195C15.674 17.9618 15.3431 17.8238 15.0985 17.5796C14.854 17.3354 14.7155 17.0048 14.7129 16.6592V8.2334C14.716 7.88652 14.8564 7.55501 15.1035 7.31152L15.1426 7.27637C15.3809 7.05428 15.6938 6.92955 16.0195 6.92676H26.6934C27.0396 6.92992 27.3705 7.07041 27.6133 7.31738L27.6504 7.35645C27.8731 7.59597 27.9978 7.91028 28 8.2373V16.6592C27.9974 17.0048 27.8589 17.3354 27.6143 17.5796C27.3698 17.8238 27.0389 17.9618 26.6934 17.9639H25.1895V20.2334C25.1878 20.3438 25.1537 20.4513 25.0915 20.5424C25.0292 20.6336 24.9415 20.7044 24.8392 20.746C24.737 20.7877 24.6247 20.7983 24.5165 20.7766C24.4082 20.7549 24.3088 20.7019 24.2305 20.624L24.2402 20.6318ZM21.8242 16.9834L24.0645 18.9814V17.4033C24.0645 17.2541 24.1237 17.1111 24.2292 17.0056C24.3347 16.9001 24.4778 16.8408 24.627 16.8408H26.6934C26.7171 16.8405 26.7405 16.8356 26.7623 16.8262C26.7841 16.8168 26.8038 16.8032 26.8203 16.7861C26.8378 16.7699 26.8518 16.7502 26.8616 16.7284C26.8713 16.7066 26.8765 16.6831 26.877 16.6592V8.2334C26.875 8.19204 26.86 8.15237 26.834 8.12012L26.8203 8.09863C26.7864 8.06482 26.7412 8.04466 26.6934 8.04199H16.0195C15.979 8.04856 15.9419 8.0685 15.9141 8.09863H15.8926C15.8755 8.11514 15.8619 8.13485 15.8525 8.15664C15.8432 8.17843 15.8382 8.20186 15.8379 8.22559V16.6592C15.8376 16.6831 15.8421 16.7068 15.8512 16.729C15.8602 16.7512 15.8736 16.7713 15.8905 16.7882C15.9074 16.8051 15.9276 16.8185 15.9497 16.8275C15.9719 16.8366 15.9956 16.8411 16.0195 16.8408H21.4512C21.5888 16.8408 21.7217 16.8915 21.8242 16.9834Z" fill="black"/>
</g>
<defs>
<clipPath id="clip0_20_855">
<rect width="24" height="18.1465" fill="white" transform="translate(4 6.92676)"/>
</clipPath>
</defs>
</svg>
