<svg width="24" height="24" viewBox="0 0 24 24" fill="none" xmlns="http://www.w3.org/2000/svg">
<path d="M3 13V13.8C3 16.7998 3 18.2997 3.76393 19.3511C4.01065 19.6907 4.30928 19.9893 4.64886 20.2361C5.70032 21 7.20021 21 10.2 21H13.8C16.7998 21 18.2997 21 19.3511 20.2361C19.6907 19.9893 19.9893 19.6907 20.2361 19.3511C21 18.2997 21 16.7998 21 13.8V13M3 13V13C3 11.1362 3 10.2044 3.30448 9.46927C3.71046 8.48915 4.48915 7.71046 5.46927 7.30448C6.20435 7 7.13623 7 9 7H15C16.8638 7 17.7956 7 18.5307 7.30448C19.5108 7.71046 20.2895 8.48915 20.6955 9.46927C21 10.2044 21 11.1362 21 13V13M3 13H21M10 10H14M8 7V7C8 4.79086 9.79086 3 12 3V3C14.2091 3 16 4.79086 16 7V7" stroke="black" stroke-opacity="0.8" stroke-width="1.5" stroke-linecap="round" stroke-linejoin="round"/>
</svg>
