<svg width="24" height="24" viewBox="0 0 24 24" fill="none" xmlns="http://www.w3.org/2000/svg">
<path d="M9 5V5C8.07099 5 7.60649 5 7.21783 5.06156C5.07837 5.40042 3.40042 7.07837 3.06156 9.21783C3 9.60649 3 10.071 3 11V13C3 15.8003 3 17.2004 3.54497 18.27C4.02433 19.2108 4.78924 19.9757 5.73005 20.455C6.79961 21 8.19974 21 11 21H13C15.8003 21 17.2004 21 18.27 20.455C19.2108 19.9757 19.9757 19.2108 20.455 18.27C21 17.2004 21 15.8003 21 13V11C21 10.071 21 9.60649 20.9384 9.21783C20.5996 7.07837 18.9216 5.40042 16.7822 5.06156C16.3935 5 15.929 5 15 5V5M9 5V6.5M9 5V3M9 5H15M15 5V3M15 5V6.5M10.1113 11.6988H9.5391C8.53514 11.6988 8.03315 11.6988 7.88587 11.9309C7.84074 12.002 7.81431 12.0834 7.80902 12.1674C7.79176 12.4418 8.19787 12.7368 9.0101 13.327L9.473 13.6633C9.69898 13.8275 9.81198 13.9096 9.86664 14.0257C9.88449 14.0637 9.89751 14.1037 9.90537 14.1449C9.92942 14.271 9.88626 14.4039 9.79995 14.6695L9.62313 15.2137C9.31289 16.1685 9.15777 16.6459 9.33298 16.8577C9.38666 16.9226 9.45587 16.9729 9.53418 17.0039C9.78975 17.1051 10.1959 16.81 11.0081 16.2199L11.471 15.8836C11.697 15.7194 11.81 15.6373 11.9373 15.6212C11.9789 15.616 12.0211 15.616 12.0627 15.6212C12.19 15.6373 12.303 15.7194 12.529 15.8836L12.9919 16.2199C13.8041 16.81 14.2102 17.1051 14.4658 17.0039C14.5441 16.9729 14.6133 16.9226 14.667 16.8577C14.8422 16.6459 14.6871 16.1685 14.3769 15.2137L14.2001 14.6695C14.1137 14.4039 14.0706 14.271 14.0946 14.1449C14.1025 14.1037 14.1155 14.0637 14.1334 14.0257C14.188 13.9096 14.301 13.8275 14.527 13.6633L14.9899 13.327C15.8021 12.7368 16.2082 12.4418 16.191 12.1674C16.1857 12.0834 16.1593 12.002 16.1141 11.9309C15.9668 11.6988 15.4649 11.6988 14.4609 11.6988H13.8887C13.6094 11.6988 13.4697 11.6988 13.3572 11.637C13.3205 11.6168 13.2864 11.592 13.2558 11.5633C13.1622 11.4754 13.1191 11.3426 13.0328 11.077L12.856 10.5328C12.5457 9.57795 12.3906 9.10054 12.1243 9.03218C12.0428 9.01124 11.9572 9.01124 11.8757 9.03218C11.6094 9.10054 11.4543 9.57795 11.144 10.5328L10.9672 11.077C10.8809 11.3426 10.8378 11.4754 10.7442 11.5633C10.7136 11.592 10.6795 11.6168 10.6428 11.637C10.5303 11.6988 10.3906 11.6988 10.1113 11.6988Z" stroke="black" stroke-opacity="0.8" stroke-width="1.5" stroke-linecap="round" stroke-linejoin="round"/>
</svg>
