<svg width="16" height="17" viewBox="0 0 16 17" fill="none" xmlns="http://www.w3.org/2000/svg">
<path fill-rule="evenodd" clip-rule="evenodd" d="M9.33333 2C9.60948 2 9.83333 2.22386 9.83333 2.5V5.16667C9.83333 5.21087 9.85089 5.25326 9.88215 5.28452C9.9134 5.31577 9.9558 5.33333 10 5.33333H12.6667C12.9428 5.33333 13.1667 5.55719 13.1667 5.83333C13.1667 6.10948 12.9428 6.33333 12.6667 6.33333H10C9.69058 6.33333 9.39383 6.21042 9.17504 5.99162C8.95625 5.77283 8.83333 5.47609 8.83333 5.16667V2.5C8.83333 2.22386 9.05719 2 9.33333 2Z" fill="#A0AEC0"/>
<path fill-rule="evenodd" clip-rule="evenodd" d="M4.66667 3C4.44565 3 4.23369 3.0878 4.07741 3.24408C3.92113 3.40036 3.83333 3.61232 3.83333 3.83333V13.1667C3.83333 13.3877 3.92113 13.5996 4.07741 13.7559C4.23369 13.9122 4.44565 14 4.66667 14H11.3333C11.5543 14 11.7663 13.9122 11.9226 13.7559C12.0789 13.5996 12.1667 13.3877 12.1667 13.1667V6.04044L9.12623 3H4.66667ZM3.3703 2.53697C3.71412 2.19315 4.18044 2 4.66667 2H9.33333C9.46594 2 9.59312 2.05268 9.68689 2.14645L13.0202 5.47978C13.114 5.57355 13.1667 5.70073 13.1667 5.83333V13.1667C13.1667 13.6529 12.9735 14.1192 12.6297 14.463C12.2859 14.8068 11.8196 15 11.3333 15H4.66667C4.18044 15 3.71412 14.8068 3.3703 14.463C3.02649 14.1192 2.83333 13.6529 2.83333 13.1667V3.83333C2.83333 3.3471 3.02649 2.88079 3.3703 2.53697Z" fill="#A0AEC0"/>
<path fill-rule="evenodd" clip-rule="evenodd" d="M8 7.33333C8.27614 7.33333 8.5 7.55719 8.5 7.83333V11.8333C8.5 12.1095 8.27614 12.3333 8 12.3333C7.72386 12.3333 7.5 12.1095 7.5 11.8333V7.83333C7.5 7.55719 7.72386 7.33333 8 7.33333Z" fill="#A0AEC0"/>
<path fill-rule="evenodd" clip-rule="evenodd" d="M5.64645 9.47978C5.84171 9.28452 6.15829 9.28452 6.35355 9.47978L8 11.1262L9.64645 9.47978C9.84171 9.28452 10.1583 9.28452 10.3536 9.47978C10.5488 9.67504 10.5488 9.99162 10.3536 10.1869L8.35355 12.1869C8.15829 12.3821 7.84171 12.3821 7.64645 12.1869L5.64645 10.1869C5.45118 9.99162 5.45118 9.67504 5.64645 9.47978Z" fill="#A0AEC0"/>
</svg>
