<svg width="24" height="24" viewBox="0 0 24 24" fill="none" xmlns="http://www.w3.org/2000/svg">
<path d="M5 4.25C5 3.55964 5.55964 3 6.25 3V3C6.94036 3 7.5 3.55964 7.5 4.25V19.75C7.5 20.4404 6.94036 21 6.25 21V21C5.55964 21 5 20.4404 5 19.75V4.25Z" stroke="black" stroke-opacity="0.8" stroke-width="1.5" stroke-linejoin="round"/>
<path d="M7.5 5C10.6499 5.69997 13.0648 5.90998 15.6022 5.63003C17.105 5.46423 17.8564 5.38132 18.2998 5.66077C18.4538 5.75786 18.5602 5.85314 18.6736 5.9956C19 6.40566 19 7.0898 19 8.4581V11.8919C19 12.7987 19 13.2522 18.7709 13.6176C18.7004 13.7301 18.6002 13.8491 18.5013 13.9377C18.1802 14.2256 17.7663 14.2971 16.9384 14.4401C13.8806 14.9681 11.1964 14.8214 7.5 14V5Z" stroke="black" stroke-opacity="0.8" stroke-width="1.5" stroke-linejoin="round"/>
</svg>
