<svg width="20" height="20" viewBox="0 0 20 20" fill="none" xmlns="http://www.w3.org/2000/svg">
<path d="M3.63604 5.36396C6.2875 2.7125 7.61323 1.38677 9.21783 1.13263C9.73605 1.05055 10.264 1.05055 10.7822 1.13263C12.3868 1.38677 13.7125 2.7125 16.364 5.36396V5.36396C17.5183 6.51833 18.0955 7.09551 18.455 7.80112C18.5739 8.0345 18.6743 8.27687 18.7553 8.52598C19 9.27915 19 10.0954 19 11.7279V16C19 17.6569 17.6569 19 16 19V19C14.3431 19 13 17.6569 13 16V15C13 13.3431 11.6569 12 10 12V12C8.34315 12 7 13.3431 7 15V16C7 17.6569 5.65685 19 4 19V19C2.34315 19 1 17.6569 1 16V11.7279C1 10.0954 1 9.27915 1.24472 8.52598C1.32566 8.27687 1.42605 8.0345 1.54497 7.80112C1.90449 7.09551 2.48167 6.51833 3.63604 5.36396V5.36396Z" stroke="#153BFC" stroke-width="1.5" stroke-linejoin="round"/>
</svg>
