<svg width="40" height="40" viewBox="0 0 40 40" fill="none" xmlns="http://www.w3.org/2000/svg">
<g clip-path="url(#clip0_37_336)">
<rect width="40" height="40" rx="20" fill="#153BFC" fill-opacity="0.1"/>
<path fill-rule="evenodd" clip-rule="evenodd" d="M20 41C31.0457 41 40 32.0457 40 21C40 9.95431 31.0457 1 20 1C8.95431 1 0 9.95431 0 21C0 24.0712 0.692228 26.9806 1.92917 29.5809C2.68194 31.1634 3.63645 32.6313 4.75946 33.9515C5.23999 34.5164 5.75137 35.0543 6.291 35.5625C6.88888 36.1255 7.52144 36.6522 8.18512 37.1389C11.4955 39.5664 15.5803 41 20 41Z" fill="#153BFC"/>
<path fill-rule="evenodd" clip-rule="evenodd" d="M13.1686 26.2536C13.169 24.4001 13.162 22.5467 13.1702 20.6937C13.1904 15.9587 18.272 12.6563 22.5979 14.5621C25.5282 15.8533 26.9728 18.2809 26.814 21.648C26.6927 24.2156 24.7623 26.6605 22.0385 27.4975C21.1077 27.7837 20.0855 27.8389 19.1016 27.8644C18.1045 27.8904 18.0782 27.7388 18.093 25.4632C18.0975 24.7321 18.079 24.0591 19.1304 24.1197C20.496 24.1987 21.7308 23.8907 22.5387 22.6554C23.3173 21.4639 23.2643 20.1352 22.4223 19.0054C21.7123 18.0527 20.387 17.6132 19.2016 17.9374C17.9186 18.2887 16.9713 19.3131 16.9446 20.6793C16.8825 23.8696 16.9002 27.0625 16.9549 30.2533C16.9598 30.5474 17.4168 31.0235 17.7343 31.0931C21.5507 31.9313 24.9273 30.9704 27.5791 28.1305C33.0309 22.2926 30.384 13.5097 23.3568 11.1386C17.1593 9.04748 11.179 13.0221 9.94046 18.6985C9.60482 20.2361 9.59454 21.7514 9.92648 23.2852C10.0449 23.833 10.2782 24.165 10.8836 24.1151C11.6146 24.0546 11.8396 24.4557 11.8371 25.1201C11.8268 28.2355 12.1193 27.822 9.2124 27.9176C8.04998 27.9559 7.45192 27.6045 6.99205 26.4826C3.75694 18.5931 7.78921 9.55821 16.0401 7.44034C24.8059 5.19026 32.0984 9.82551 33.9358 18.367C35.6609 26.3874 29.5716 34.2732 21.4129 34.999C18.9227 35.2205 16.5822 34.8227 14.2858 33.9207C13.4956 33.6105 13.1139 33.1472 13.1468 32.2246C13.2175 30.2364 13.1682 28.2442 13.1686 26.2536Z" fill="#DBE7FF"/>
</g>
<defs>
<clipPath id="clip0_37_336">
<rect width="40" height="40" rx="20" fill="white"/>
</clipPath>
</defs>
</svg>
