<svg width="24" height="24" viewBox="0 0 24 24" fill="none" xmlns="http://www.w3.org/2000/svg">
<path d="M9.5 12.5L10.3338 13.6118C10.6055 13.9741 10.7414 14.1552 10.9229 14.195C10.981 14.2077 11.0409 14.2099 11.0998 14.2016C11.2838 14.1756 11.4329 14.0052 11.7311 13.6644L14.5 10.5M12 21.5C16.5465 21.5 19.3847 16.451 20.5145 11.1229C20.7777 9.88201 20.9092 9.26157 20.6897 8.52808C20.6255 8.31341 20.5031 8.0362 20.3878 7.84409C19.9937 7.18766 19.3565 6.81401 18.0822 6.0667L14.7316 4.10188C13.5507 3.40933 12.9602 3.06306 12.3176 2.99465C12.1065 2.97216 11.8935 2.97216 11.6824 2.99465C11.0398 3.06306 10.4493 3.40933 9.26837 4.10188L5.91784 6.0667C4.64348 6.81401 4.00631 7.18766 3.61223 7.84409C3.49689 8.0362 3.37452 8.31342 3.31027 8.52808C3.09076 9.26157 3.22233 9.88201 3.48547 11.1229C4.61533 16.451 7.45351 21.5 12 21.5Z" stroke="black" stroke-opacity="0.8" stroke-width="1.5" stroke-linecap="round" stroke-linejoin="round"/>
</svg>
