<svg width="24" height="24" viewBox="0 0 24 24" fill="none" xmlns="http://www.w3.org/2000/svg">
<path d="M12.75 16.75C12.75 17.1642 12.4142 17.5 12 17.5C11.5858 17.5 11.25 17.1642 11.25 16.75C11.25 16.3358 11.5858 16 12 16C12.4142 16 12.75 16.3358 12.75 16.75Z" fill="black" fill-opacity="0.8"/>
<path d="M9.75 9.66274C9.75 8.46829 10.7574 7.5 12 7.5C13.2426 7.5 14.25 8.46829 14.25 9.66274C14.25 10.384 13.8827 11.0228 13.3181 11.4157C13.005 11.6336 12.629 11.7631 12.3645 12.0379C11.7394 12.6874 11.5706 13.6685 12.0177 14.5M21 12C21 16.9706 16.9706 21 12 21C7.02944 21 3 16.9706 3 12C3 7.02944 7.02944 3 12 3C16.9706 3 21 7.02944 21 12Z" stroke="black" stroke-opacity="0.8" stroke-width="1.5" stroke-linecap="round" stroke-linejoin="round"/>
</svg>
